<svg height="512" width="512" xmlns="http://www.w3.org/2000/svg"><path d="m-1-1h582v402h-582z" fill="none"/><path clip-rule="evenodd" d="m256 32c-123.699997 0-224 102.800003-224 229.700012 0 101.5 64.199997 187.5 153.199997 217.899994 11.199997 2.100006 15.300003-5 15.300003-11.100006 0-5.5-.199997-19.899994-.300003-39.099976-62.300003 13.899994-75.5-30.800018-75.5-30.800018-10.199997-26.5-24.899994-33.600006-24.899994-33.600006-20.300003-14.299988 1.5-14 1.5-14 22.5 1.600006 34.300003 23.700012 34.300003 23.700012 20 35.100006 52.399994 25 65.199982 19.100006 2-14.800018 7.800003-25 14.199997-30.700012-49.699997-5.799988-101.999992-25.5-101.999992-113.5 0-25.099991 8.699997-45.599991 22.999992-61.599991-2.299988-5.800003-9.999992-29.200012 2.200012-60.800003 0 0 18.799988-6.200005 61.599991 23.5 17.900009-5.100006 37-7.600006 56.100006-7.699997 19 .099991 38.199982 2.599991 56.100006 7.699997 42.799988-29.700005 61.5-23.5 61.5-23.5 12.199982 31.599991 4.5 55 2.199982 60.800003 14.300018 16.099991 23 36.599991 23 61.599991 0 88.200012-52.399994 107.600006-102.299988 113.300018 8 7.099976 15.199982 21.099976 15.199982 42.5 0 30.699982-.299988 55.5-.299988 63 0 6.099976 4 13.299988 15.399994 11 89.200012-30.300018 153.300018-116.300018 153.300018-217.700012 0-126.900009-100.299988-229.700012-224-229.700012z" fill="#fff" fill-rule="evenodd"/></svg>