<svg height="512" width="512" xmlns="http://www.w3.org/2000/svg"><path d="m-1-1h582v402h-582z" fill="none"/><path d="m51.326 185.850006h90.011005v270.872009h-90.011005zm45.607998-130.572006c-30.806999 0-50.933998 20.224998-50.933998 46.771004 0 25.999992 19.538002 46.812996 49.755997 46.812996h.574005c31.395996 0 50.947998-20.813995 50.947998-46.812996-.589005-26.546005-19.551003-46.771004-50.344002-46.771004zm265.404991 124.209c-47.778992 0-69.18399 26.279999-81.125 44.710007v-38.347h-90.037994c1.192001 25.411011 0 270.872009 0 270.872009h90.037994v-151.274017c0-8.10199.588989-16.174011 2.958008-21.977997 6.518982-16.174011 21.333008-32.923004 46.182007-32.923004 32.60199 0 45.621979 24.851013 45.621979 61.248016v144.925964h90.024017v-155.322968c0-83.199005-44.402008-121.911011-103.661011-121.911011z" fill="#fff"/></svg>