<svg height="512" width="512" xmlns="http://www.w3.org/2000/svg"><path d="m-1-1h582v402h-582z" fill="none"/><g fill="#fff"><path d="m67 148.699997c11 5.800003 163.800003 89.100006 169.5 92.100006s11.5 4.399994 20.5 4.399994 14.799988-1.399994 20.5-4.399994 158.5-86.300018 169.5-92.100006c4.100006-2.099991 11-5.899994 12.5-10.199997 2.600006-7.600006-.200012-10.5-11.299988-10.5h-191.200012-191.199997c-11.100002 0-13.900002 3-11.300003 10.5 1.5 4.399994 8.400002 8.100006 12.5 10.199997z"/><path d="m455.700012 153.199997c-8.200012 4.199997-81.799988 56.600006-130.5 88.100006l82.200012 92.499985c2 2 2.899994 4.400024 1.799988 5.600006-1.200012 1.100006-3.799988.5-5.899994-1.399994l-98.600006-83.199997c-14.899994 9.599991-25.399994 16.199997-27.200012 17.199997-7.699982 3.899994-13.099976 4.399994-20.5 4.399994-7.399994 0-12.799988-.5-20.499985-4.399994-1.900009-1-12.300003-7.600006-27.200012-17.199997l-98.599991 83.199997c-2 2-4.700005 2.600006-5.900002 1.399994-1.199997-1.100006-.300003-3.600006 1.699997-5.600006l82.099998-92.499985c-48.699997-31.5-123.099998-83.900009-131.299995-88.100006-8.799999-4.5-9.299999.800003-9.299999 4.900009v205c0 9.299988 13.699997 20.899994 23.499996 20.899994h185.499992 185.5c9.799988 0 21.5-11.700012 21.5-20.899994 0 0 0-201 0-205 0-4.200012.600006-9.400009-8.299988-4.900009z"/></g></svg>