<svg width="24" height="24" xmlns="http://www.w3.org/2000/svg">
 <title/>

 <g>
  <title>background</title>
  <rect fill="none" id="canvas_background" height="402" width="582" y="-1" x="-1"/>
 </g>
 <g>
  <title>Layer 1</title>
  <path fill="#ffffff" id="svg_1" d="m18.986,21.865l0,-6.403999l2.134001,0l0,8.539l-19.276001,0l0,-8.539l2.13,0l0,6.403999l15.012,0zm-12.875,-2.133999l10.739,0l0,-2.137001l-10.739,0l0,2.137001zm0.259,-4.852001l10.48,2.189001l0.451,-2.070001l-10.478001,-2.187l-0.453,2.068zm1.359,-5.056l9.705,4.53l0.903,-1.95l-9.706,-4.53l-0.901999,1.936l0,0.014zm2.715,-4.785l8.216999,6.855l1.359001,-1.62l-8.216001,-6.853l-1.349999,1.617l-0.01,0.001zm5.307,-5.038l-1.746,1.294l6.405,8.604l1.746,-1.294l-6.407001,-8.604l0.002001,0z"/>
 </g>
</svg>